# xmcd
#
# Track frame offsets:
#	150
#	26422
#	44595
#	68010
#	95395
#	117980
#	135475
#	163152
#	182312
#
# Disc length: 2613 seconds
#
# Revision: 1
# Processed by: cddbd v1.5.1PL2 Copyright (c) Steve Scherf et al.
# Submitted via: audiograbber 1.83.01
#
DISCID=6f0a3309
DTITLE=The Geezinslaws - I Wish I Had A Job To Shove
DYEAR=1994
DGENRE=Country
TTITLE0=Because Of Country Music (I've Gone Crazy)
TTITLE1=I Wish I Had A Job To Shove
TTITLE2=I Love You Period
TTITLE3=Play It Backwards
TTITLE4=Paint Me On Velvet
TTITLE5=Monkey Man
TTITLE6=I Feel Like Hank Williams Tonight
TTITLE7=Self-Made Man
TTITLE8=You Wouldn't Put The Shuck On Me
EXTD=
EXTT0=
EXTT1=
EXTT2=
EXTT3=
EXTT4=
EXTT5=
EXTT6=
EXTT7=
EXTT8=
PLAYORDER=
